<svg xmlns="http://www.w3.org/2000/svg" width="1200" height="800" viewBox="-6.835815 -3.752675 59.24373 22.51605"><g fill="#7d8386"><path d="M27.1779 12.7042c-.1281-.0547-.3052-.0931-.448-.0931-.1401 0-.3207.0596-.3207.2776 0 .3471.8918.201.8918.8724 0 .4392-.3524.6054-.7634.6054-.2216 0-.3203-.0286-.5221-.0776l-.0003-.3613c.1404.0748.3387.1235.4992.1235.1541 0 .3612-.0776.3612-.2586 0-.3813-.8918-.2236-.8918-.8865 0-.447.3528-.6114.7112-.6114.175 0 .3383.0236.4865.0723zm2.3364.5c-.1157-.0392-.2212-.061-.3598-.061-.1016 0-.2233.036-.2233.1584 0 .2289.659.0836.659.6014 0 .3345-.3024.4682-.611.4682-.144 0-.2918-.0247-.4297-.061l.0222-.3066c.1188.0586.2437.0949.3735.0949.096 0 .2491-.0363.2491-.1757 0-.2811-.6593-.0892-.6593-.6071 0-.3094.2744-.4456.5715-.4456.1785 0 .2942.0275.413.053zm1.2007.0082c-.0682-.0307-.1415-.0526-.258-.0526-.235 0-.3845.1838-.3845.454 0 .2643.1277.4678.3934.4678.1076 0 .226-.0392.2913-.067l.017.3094c-.1105.0335-.2234.0473-.379.0473-.4783 0-.7185-.3203-.7185-.7574 0-.4152.2487-.744.7045-.744.1527 0 .2628.0169.3676.0476zm.8631.8691c.2918 0 .3676-.2561.3676-.4953 0-.2205-.1185-.4265-.3676-.4265-.2462 0-.3647.2117-.3647.4265 0 .2364.0759.4953.3647.4953m0-1.2118c.4329 0 .7638.2868.7638.7606 0 .412-.2801.7412-.7638.7412-.4808 0-.7613-.3291-.7613-.7412 0-.4738.3313-.7606.7613-.7606m-3.0005.014h-.3849l-.7239 1.9706h.3475z"/><path d="M27.0047 12.8483c.1609.163.321.3613.4371.594.1037.2079.1566.4107.194.6153.0011.007.006.006.009.0007.1383-.2413.2226-.5697.0988-.8173-.1294-.2604-.4413-.3803-.7337-.404-.0107-.0003-.012.005-.005.0113m-2.2926.771c-.264-.006-.5151.0519-.5151.2762 0 .1453.0935.212.2117.212.1485 0 .2579-.097.2914-.2032a.271.271 0 00.012-.0815zm.0487.7214l-.024-.1633h-.01c-.0907.115-.2456.1968-.4368.1968-.2967 0-.4635-.2152-.4635-.4395 0-.373.3302-.5606.8763-.5578v-.0243c0-.097-.0395-.2579-.3006-.2579-.1453 0-.297.046-.3969.1097l-.0727-.243c.109-.0667.2999-.1302.5338-.1302.4724 0 .6089.3002.6089.6216v.5334c0 .1334.006.2639.0212.3545zm9.518-.0452c-.0782.0363-.2331.0755-.4183.0755-.4608 0-.7606-.2938-.7606-.7517 0-.4424.303-.7885.8209-.7885.1369 0 .2766.031.3612.0698l-.0667.2794c-.0607-.0275-.1485-.0582-.2818-.0582-.2847 0-.4551.2096-.4516.479 0 .3035.1969.4763.4516.4763.1301 0 .2212-.0275.2938-.0578zm.5397-.6912c0 .2847.1397.5.3669.5.2116 0 .3609-.209.3609-.5063 0-.23-.1034-.4939-.3578-.4939-.2638 0-.37.255-.37.5002m1.1126-.0152c0 .543-.3824.785-.758.785-.4181 0-.7395-.2879-.7395-.761 0-.485.3182-.782.7638-.782.4395 0 .7337.3097.7337.758m.3064-.2848c0-.17-.003-.3126-.012-.44h.3213l.0152.2184h.009c.0727-.115.2064-.2519.4548-.2519.194 0 .3457.1094.4095.273h.006c.0515-.0814.1122-.1424.1817-.1848.0822-.0575.176-.0882.2978-.0882.2452 0 .4939.167.4939.64v.87h-.3638v-.8153c0-.246-.0854-.3913-.2638-.3913-.1274 0-.2212.0914-.261.1969-.009.0367-.018.0822-.018.1249v.8847h-.3634v-.8547c0-.2064-.0822-.3518-.255-.3518-.1398 0-.2333.1094-.2668.2124-.0152.036-.0212.0787-.0212.121v.8731h-.3637zm2.9435.4182c0 .0363.003.0695.012.103a.337.337 0 00.3278.2607c.236 0 .3757-.1972.3757-.4882 0-.2603-.1274-.4727-.367-.4727-.1548 0-.297.1122-.3336.2759a.3402.3402 0 00-.0148.0942zm-.3729-.3669c0-.194-.006-.3513-.012-.4914h.327l.0184.2276h.006c.109-.1662.2822-.2607.5066-.2607.3397 0 .6212.291.6212.7517 0 .5334-.3362.7913-.6727.7913-.1853 0-.3401-.0787-.4156-.1968h-.006v.7637h-.3729zm2.5557.2637c-.2638-.006-.5154.0519-.5154.2762 0 .1453.0938.212.212.212.1486 0 .258-.097.2914-.2032a.271.271 0 00.012-.0815zm.0483.7214l-.0243-.1633h-.009c-.0903.115-.2451.1968-.4364.1968-.297 0-.4635-.2152-.4635-.4395 0-.373.3302-.5606.876-.5578v-.0243c0-.097-.0395-.2579-.3006-.2579-.145 0-.2967.046-.3969.1097l-.0723-.243c.109-.0667.2999-.1302.533-.1302.4731 0 .6097.3002.6097.6216v.5334c0 .1334.006.2639.0212.3545zm.7094-1.0364c0-.17-.003-.3126-.0116-.44h.327l.018.2216h.01c.0639-.115.224-.255.4699-.255.2575 0 .5239.1668.5239.6339v.876h-.3726v-.8333c0-.2124-.079-.3733-.2822-.3733-.1482 0-.2515.1066-.2907.2184-.0123.0332-.0148.0787-.0148.1214v.8667h-.3764zm1.9193-.4399l.2667.7916c.03.0907.0603.2029.0815.2879h.01c.0236-.085.0515-.1944.0783-.2914l.2304-.7881h.4l-.3697 1.0065c-.2029.5517-.339.7972-.5154.949-.1454.1305-.297.1788-.3912.1908l-.0843-.3147c.0635-.0155.1421-.0487.2183-.1033.0691-.0455.151-.1334.2025-.2336.0155-.0275.0247-.0487.0247-.0667 0-.0152-.003-.0367-.0215-.0727l-.5397-1.3554z"/></g><path d="M9.581 11.0374c1.6344-1.241 2.5858-3.291 2.3233-5.4755C11.5173 2.35 8.6493.0413 5.4496.3253 7.4632 1.912 7.7264 3.453 7.714 5.003c-.009 1.117-.2445 1.8295.067 3.3398.2264 1.094.982 2.1999 1.7998 2.6945" fill="#83bb26"/><path d="M.8043 3.2802C.2928 4.161 0 5.184 0 6.2756c0 3.2985 2.674 5.9725 5.9732 5.9725a5.9695 5.9695 0 001.7004-.2455c.01-1.7544-.7101-2.8949-1.6471-3.5465-1.1335-.787-2.4606-.7761-3.7264-2.0288C1.5483 5.6833.9737 4.7124.8043 3.2802" fill="#cad200"/><path d="M5.2841 1.3434s.034.3072-.0462.6664C4.5324 1.246 3.1241 1.2552 2.4161 0c-2.0102 3.658.0512 6.9099 3.942 7.0323.7362-2.2825.5404-4.3505-1.074-5.689" fill="#499c2d"/><g fill="#499c2d"><path d="M25.3265 8.8741c-.7458 0-1.0975-.43-1.1024-.8865-.007-.67.4187-.9885 1.4062-1.1215.6522-.0882 1.4001-.1647 1.7628-.3122 0 1.3395-.9783 2.3202-2.0666 2.3202m2.461-5.0895c-.5045-.4565-1.178-.6667-2.0274-.6833-.642-.012-1.2235.0706-1.5522.1714-.1175.0363-.1853.1115-.1853.2438v.7119c0 .1644.1136.2307.2544.1937.4343-.1136.9126-.199 1.4894-.1877.9225.0176 1.4595.4283 1.572 1.258-.4918.1901-1.1003.1901-2.0874.358-.7412.126-1.3236.3634-1.6845.7536-.3454.374-.5232.8632-.5232 1.4288 0 1.1772.9155 1.9526 2.2317 1.9526.92 0 1.797-.5077 2.1823-1.1734v.3712c0 .5136.4276.7154 1.1208.6395V6.0138c0-1.1243-.2583-1.7477-.7906-2.2292m7.5932 2.1704c.189-1.068.9415-1.7573 1.8835-1.7573.9694 0 1.7113.682 1.8337 1.7572zm1.8845-2.8523c-1.7427 0-3.1249 1.4976-3.1249 3.4572 0 2.0387 1.3896 3.4283 3.3345 3.4283.6459 0 1.1433-.1238 1.4287-.2663.5144-.2554.702-.5874.5126-1.421-.5217.3669-1.1377.5845-1.8697.5845-1.0023 0-1.9597-.5453-2.1696-1.8446h4.1159c.606 0 .7965-.2424.7965-.8414 0-1.4792-1.048-3.0967-3.024-3.0967m6.9773 2.9881c-.545-.2067-1.1808-.2811-1.7417-.4473-.4053-.1203-.648-.3316-.648-.6382 0-.4205.418-.7747 1.0894-.7747.5866 0 1.0138.1732 1.3913.5214.144.134.2314.1408.3994.0183 0 0 .3545-.2586.4903-.3647.1274-.0991.1489-.2131.0653-.3218-.4773-.612-1.3846-.9814-2.2542-.9814-1.3603 0-2.3732.8033-2.3732 1.9463 0 .7817.3687 1.2357.9024 1.5039.7437.3746 1.6048.4423 2.1724.6392.4696.1633.6093.4269.6093.7465 0 .5362-.5133.9257-1.3787.9257-.8297 0-1.5762-.2914-2.2295-.9187-.4477.6054-.405 1.0432-.0787 1.3286.539.473 1.4883.7161 2.2839.7161 1.639 0 2.63-.8823 2.63-2.094 0-1.0048-.5818-1.5212-1.3297-1.8052M23.4842 4.222v-.7324c0-.1545-.078-.2148-.2318-.2177-.043-.0007-.1147 0-.1404 0-.8692 0-1.6196.3048-2.0101.9215v-.2847c0-.5143-.5945-.6406-1.1212-.6406v6.345c0 .1715.12.2247.2689.2247h.6512c.156 0 .2773-.0543.2773-.22V6.635c0-.8788.1368-1.3145.5775-1.7692.3256-.3359.7683-.4248 1.2735-.4248h.2522c.128 0 .2029-.0649.2029-.219m-7.1279 4.6616c-.4625 0-.9846-.21-1.312-.6646-.2519-.3507-.3616-.7878-.3616-1.4517 0-.5084.0007-.4343.001-1.2496.2653-.7013.9324-1.3028 1.7177-1.3028 1.1518 0 1.8447.9613 1.8447 2.3301 0 1.3991-.7169 2.3386-1.8899 2.3386m.1986-5.7831c-.7052 0-1.3895.2812-1.8707.773V1.1301c0-.5746-.441-.8212-1.2016-.8357v6.2558c-.001 1.438-.2078 2.1498-.7899 3.0836.6537.3592 1.2266.2988 1.6059-.7246.5122.743 1.3617 1.0795 2.1198 1.0795 1.7763 0 3.0367-1.277 3.0367-3.4374 0-1.988-1.1162-3.451-2.9002-3.451"/><path d="M34.4157 3.5947c.1217-.2095.009-.3228-.1291-.3228H33.52c-.1845 0-.3655-.01-.4981.1845-.5892.8615-1.5586 1.5113-2.4624 1.7809V1.1387c0-.575-.441-.821-1.202-.836V9.612c0 .1721.1207.2254.2696.2254h.653c.1563 0 .2794-.0547.2794-.2208V6.3662a7.1335 7.1335 0 00.3542-.1038c.6992.9949 2.0348 2.889 2.2817 3.2382.3327.4692.8347.416 1.4644-.0116l-2.6225-3.6992c1.0195-.5384 1.8549-1.293 2.3784-2.195"/></g></svg>