<svg width="183" height="288" viewBox="0 0 183 288" fill="none" xmlns="http://www.w3.org/2000/svg">
<path d="M99.9706 274.922C99.9706 273.695 100.458 272.518 101.325 271.65C102.192 270.782 103.368 270.295 104.594 270.295H122.754C126.007 270.173 129.084 268.789 131.336 266.436C133.587 264.082 134.835 260.945 134.815 257.687C134.824 256.06 134.512 254.449 133.896 252.944C133.28 251.439 132.373 250.071 131.228 248.918C130.082 247.765 128.72 246.85 127.219 246.225C125.719 245.601 124.11 245.28 122.486 245.28H93.0687V251.986H122.754C123.472 251.968 124.187 252.093 124.856 252.354C125.526 252.615 126.137 253.006 126.655 253.505C127.172 254.005 127.585 254.601 127.87 255.262C128.155 255.922 128.307 256.632 128.315 257.351C128.315 258.079 128.171 258.8 127.891 259.471C127.61 260.143 127.2 260.752 126.682 261.264C126.165 261.775 125.551 262.179 124.877 262.451C124.202 262.724 123.481 262.859 122.754 262.851H104.594C101.531 262.921 98.6165 264.188 96.475 266.382C94.3335 268.575 93.1349 271.52 93.1357 274.587V288H134.815V280.824H99.9706V274.922Z" fill="black"/>
<path d="M6.9019 274.922C6.9019 273.695 7.38903 272.518 8.25613 271.65C9.12322 270.782 10.2993 270.295 11.5255 270.295H29.6849C32.9849 270.242 36.1308 268.888 38.4393 266.527C40.7478 264.167 42.0325 260.99 42.0145 257.687C42.0233 256.06 41.7109 254.449 41.0952 252.944C40.4796 251.439 39.5728 250.071 38.427 248.918C37.2812 247.765 35.919 246.85 34.4187 246.225C32.9184 245.601 31.3097 245.28 29.6849 245.28H0V251.986H29.6849C30.3977 251.977 31.1052 252.109 31.7671 252.374C32.429 252.639 33.0323 253.031 33.5426 253.53C34.0528 254.028 34.46 254.622 34.7409 255.277C35.0218 255.933 35.1708 256.638 35.1796 257.351C35.1796 258.81 34.6007 260.209 33.5702 261.24C32.5398 262.271 31.1421 262.851 29.6849 262.851H11.5255C8.46213 262.921 5.54785 264.188 3.40634 266.382C1.26483 268.575 0.0662097 271.52 0.0670102 274.587V288H42.0145V280.824H6.9019V274.922Z" fill="black"/>
<path d="M169.461 245.28H151.838C148.497 245.28 145.292 246.608 142.93 248.972C140.567 251.337 139.24 254.544 139.24 257.888V275.325C139.24 278.675 140.565 281.889 142.926 284.264C145.286 286.639 148.491 287.982 151.838 288H169.461C172.808 287.982 176.012 286.639 178.373 284.264C180.734 281.889 182.059 278.675 182.059 275.325V257.888C182.059 254.544 180.731 251.337 178.369 248.972C176.006 246.608 172.802 245.28 169.461 245.28V245.28ZM175.023 275.325C175.032 276.056 174.896 276.781 174.625 277.46C174.354 278.139 173.952 278.757 173.441 279.28C172.931 279.804 172.323 280.221 171.651 280.509C170.98 280.797 170.258 280.949 169.528 280.958H151.838C151.107 280.949 150.386 280.797 149.714 280.509C149.043 280.221 148.435 279.804 147.925 279.28C147.414 278.757 147.012 278.139 146.741 277.46C146.469 276.781 146.334 276.056 146.343 275.325V257.62C146.343 256.161 146.922 254.762 147.952 253.731C148.983 252.7 150.38 252.12 151.838 252.12H169.461C170.918 252.12 172.316 252.7 173.346 253.731C174.377 254.762 174.956 256.161 174.956 257.62L175.023 275.325Z" fill="black"/>
<path d="M76.3185 245.28H58.6952C55.3541 245.28 52.1498 246.608 49.7873 248.972C47.4248 251.337 46.0975 254.544 46.0975 257.888V275.325C46.0975 278.675 47.4226 281.889 49.7832 284.264C52.1438 286.639 55.3479 287.982 58.6952 288H76.3185C79.6773 288 82.8986 286.665 85.2737 284.287C87.6488 281.91 88.9831 278.686 88.9831 275.325V257.888C88.9654 254.538 87.6233 251.331 85.2501 248.968C82.8769 246.606 79.6658 245.279 76.3185 245.28ZM81.8132 275.526C81.822 276.257 81.6869 276.982 81.4156 277.661C81.1442 278.34 80.7419 278.959 80.2317 279.482C79.7214 280.005 79.1132 280.422 78.4418 280.71C77.7704 280.998 77.0489 281.151 76.3185 281.159H58.6952C57.2318 281.124 55.8413 280.513 54.8252 279.458C53.8091 278.404 53.2494 276.991 53.2675 275.526V257.821C53.2674 256.374 53.8371 254.985 54.8531 253.956C55.8691 252.926 57.2495 252.339 58.6952 252.321H76.3185C77.7758 252.321 79.1733 252.901 80.2038 253.932C81.2343 254.963 81.8132 256.362 81.8132 257.821V275.526Z" fill="black"/>
<path d="M43.2825 206.314C41.9287 206.346 40.6047 206.719 39.4332 207.399C38.2618 208.079 37.281 209.044 36.5817 210.204V210.204L25.7262 230.324L14.8708 210.204C13.9808 208.73 12.6342 207.586 11.0356 206.947C9.43695 206.308 7.67361 206.208 6.01335 206.663C4.3531 207.119 2.88664 208.104 1.83668 209.469C0.786731 210.834 0.210646 212.505 0.195923 214.228V238.439H6.8968V214.228C6.8968 213.872 7.03799 213.531 7.28932 213.28C7.54065 213.028 7.88154 212.887 8.23698 212.887C8.46013 212.895 8.67861 212.953 8.87594 213.057C9.07328 213.162 9.24432 213.31 9.37612 213.49L20.9016 235.085C21.4104 235.967 22.1434 236.699 23.0261 237.205C23.9088 237.712 24.9098 237.975 25.9273 237.969C26.9475 237.99 27.954 237.732 28.8392 237.224C29.7245 236.716 30.4551 235.977 30.9529 235.085L42.4784 213.558C42.6102 213.377 42.7813 213.229 42.9786 213.124C43.1759 213.02 43.3944 212.962 43.6176 212.954C43.973 212.954 44.3139 213.095 44.5652 213.347C44.8166 213.598 44.9578 213.939 44.9578 214.295V238.439H51.6586V214.228C51.6605 213.148 51.4416 212.079 51.0152 211.087C50.5888 210.095 49.9641 209.201 49.1794 208.46C48.3948 207.718 47.4668 207.146 46.4527 206.777C45.4385 206.408 44.3597 206.25 43.2825 206.314V206.314Z" fill="black"/>
<path d="M102.858 238.439H109.558V226.501H129.661C130.988 226.553 132.242 227.123 133.156 228.087C134.07 229.052 134.571 230.336 134.553 231.665V238.371H141.254V231.665C141.251 228.722 140.124 225.89 138.104 223.751C139.094 222.794 139.883 221.648 140.424 220.381C140.965 219.114 141.247 217.752 141.254 216.374C141.254 213.706 140.195 211.147 138.31 209.261C136.425 207.374 133.868 206.314 131.202 206.314H102.791L102.858 238.439ZM109.558 212.887H130.934C131.389 212.878 131.84 212.96 132.263 213.128C132.685 213.296 133.07 213.546 133.394 213.865C133.719 214.183 133.976 214.563 134.152 214.983C134.328 215.402 134.419 215.852 134.419 216.307C134.428 216.774 134.344 217.238 134.174 217.673C134.004 218.107 133.75 218.504 133.426 218.84C133.102 219.177 132.716 219.446 132.288 219.633C131.861 219.819 131.401 219.92 130.934 219.929H109.357L109.558 212.887Z" fill="black"/>
<path d="M62.1129 238.439L75.5146 213.893C75.6961 213.591 75.9512 213.341 76.2559 213.165C76.5607 212.989 76.9051 212.893 77.2568 212.887C77.6073 212.899 77.9494 212.997 78.2531 213.173C78.5568 213.348 78.813 213.595 78.999 213.893L91.9987 238.439H99.3697L84.7618 210.808C84.0285 209.454 82.9449 208.322 81.6245 207.532C80.3041 206.741 78.7955 206.321 77.2568 206.314C75.7334 206.312 74.2376 206.722 72.9282 207.501C71.6187 208.281 70.5443 209.4 69.8188 210.741L54.4069 238.506H61.8448L62.1129 238.439Z" fill="black"/>
<path d="M173.144 219.125H154.448C154.001 219.19 153.545 219.159 153.11 219.032C152.676 218.906 152.274 218.687 151.932 218.391C151.589 218.096 151.315 217.729 151.127 217.318C150.938 216.906 150.841 216.459 150.841 216.006C150.841 215.553 150.938 215.106 151.127 214.694C151.315 214.283 151.589 213.916 151.932 213.621C152.274 213.325 152.676 213.106 153.11 212.979C153.545 212.853 154.001 212.822 154.448 212.887H179.912V206.181H154.448C153.109 206.069 151.761 206.237 150.49 206.673C149.219 207.11 148.052 207.805 147.063 208.716C146.074 209.627 145.285 210.733 144.745 211.965C144.205 213.196 143.926 214.527 143.926 215.872C143.926 217.217 144.205 218.547 144.745 219.779C145.285 221.011 146.074 222.117 147.063 223.028C148.052 223.938 149.219 224.634 150.49 225.07C151.761 225.507 153.109 225.674 154.448 225.563H173.144C173.903 225.629 174.61 225.974 175.13 226.531C175.649 227.088 175.945 227.818 175.958 228.581C175.95 229.365 175.662 230.121 175.146 230.711C174.63 231.302 173.92 231.688 173.144 231.8H145.536V238.506H173.144C175.646 238.371 178.004 237.293 179.744 235.489C181.484 233.685 182.478 231.289 182.525 228.782C182.493 226.276 181.502 223.879 179.757 222.082C178.012 220.286 175.645 219.227 173.144 219.125V219.125Z" fill="black"/>
<path d="M92.0842 181.137C142.104 181.137 182.653 140.588 182.653 90.5684C182.653 40.5489 142.104 0 92.0842 0C42.0646 0 1.51575 40.5489 1.51575 90.5684C1.51575 140.588 42.0646 181.137 92.0842 181.137Z" fill="#FF0000"/>
<path d="M122.426 20.3916C124.184 39.3421 125.59 40.7484 144.541 42.5063C125.59 44.2643 124.184 45.7761 122.426 64.621C120.703 45.7058 119.262 44.2643 100.311 42.5063C119.262 40.7484 120.668 39.3421 122.426 20.3916Z" fill="white"/>
<path d="M150.939 132.794C150.939 137.189 147.353 140.81 142.923 140.81H128.789C124.394 140.81 120.773 137.224 120.773 132.794V119.117C120.773 114.722 117.187 111.171 112.757 111.171H100.662C96.2677 111.171 92.6463 111.136 92.6463 111.171C92.6463 111.207 89.0602 111.171 84.6302 111.171H71.3754C66.9806 111.171 63.3593 114.828 63.3593 119.223V132.794C63.3593 137.189 59.7731 140.81 55.3431 140.81H41.2445C36.8497 140.81 33.2284 137.224 33.2284 132.794V119.012C33.2284 114.617 36.8146 110.644 41.2445 110.644H54.4993C58.8941 110.644 62.5155 107.409 62.5155 103.015V89.0567C62.5155 84.6619 62.5155 81.0405 62.5506 81.0405C62.5506 81.0405 62.5858 77.4544 62.5858 73.0244V58.8555C62.5858 54.4607 66.1719 50.8394 70.6019 50.8394H84.7708C89.1656 50.8394 92.787 54.4255 92.787 58.8555V72.9189C92.787 77.3137 96.3731 80.9351 100.803 80.9351H113.706C118.101 80.9351 121.722 84.5212 121.722 88.9512V102.241C121.722 106.636 125.309 110.609 129.739 110.609H143.029C147.423 110.609 151.045 113.843 151.045 118.238V132.794H150.939Z" fill="white"/>
</svg>
